<svg width="405" height="161" viewBox="0 0 405 161" fill="none" xmlns="http://www.w3.org/2000/svg">
<path d="M102.756 2.14393C105.83 4.34918 107.761 7.0744 108.903 10.6906C109.074 12.2254 109.167 13.5937 109.144 15.1218C109.14 15.5286 109.135 15.9355 109.13 16.3546C108.849 25.6662 104.337 33.2558 98.7084 40.4111C97.3153 42.1958 95.9494 44.0012 94.5782 45.8027C92.7464 48.209 90.9092 50.6111 89.0673 53.0098C88.701 53.4898 88.3347 53.9699 87.9573 54.4645C87.435 55.144 87.435 55.144 86.9021 55.8372C86.5897 56.2451 86.2772 56.6531 85.9554 57.0734C85.7095 57.3647 85.4637 57.656 85.2104 57.9562C85.0286 57.9562 84.8467 57.9562 84.6594 57.9562C84.2448 55.9474 83.8862 53.935 83.5574 51.9106C83.4821 51.5188 83.4068 51.127 83.3293 50.7234C83.0532 48.2402 83.8304 46.9251 85.3137 45.0749C85.9443 44.3485 86.5753 43.6224 87.2104 42.8999C94.0039 34.9621 101.119 26.414 100.795 15.476C100.591 13.5378 100.154 12.2581 98.9852 10.6906C97.6292 9.67698 97.6292 9.67698 96.2303 9.04183C95.6848 8.76978 95.6848 8.76978 95.1283 8.49223C91.4138 8.38462 88.5708 9.39184 85.7614 11.7898C82.0556 15.4794 80.1424 19.4896 78.5984 24.4306C78.4223 24.9457 78.2462 25.4607 78.0647 25.9914C76.8917 30.0268 76.7763 33.9904 76.7388 38.1706C76.7312 38.7011 76.7235 39.2315 76.7156 39.7781C76.7777 49.7094 79.0384 59.6554 80.8024 69.3947C80.9934 70.4592 81.1843 71.5237 81.3749 72.5882C82.2063 77.2197 83.0513 81.8481 83.9297 86.4709C85.8703 96.7724 85.8912 106.87 85.7614 117.313C86.2144 117.458 86.2144 117.458 86.6767 117.606C89.2642 118.448 91.797 119.369 94.3179 120.391C102.79 123.811 112.499 126.767 121.438 123.255C122.418 122.77 123.385 122.258 124.331 121.71C124.674 121.511 125.017 121.313 125.371 121.109C129.943 117.892 130.884 111.948 131.78 106.832C131.868 106.301 131.955 105.769 132.045 105.222C134.375 105.934 136.426 106.822 138.554 108.004C139.343 108.439 139.343 108.439 140.148 108.882C141.412 109.618 141.412 109.618 141.963 110.168C142.298 115.051 140.331 119.413 137.488 123.313C136.282 124.691 135.04 125.961 133.698 127.206C133.18 127.687 133.18 127.687 132.652 128.178C126.074 133.645 117.637 134.379 109.454 133.801C106.431 133.396 103.535 132.528 100.638 131.602C100.167 131.452 99.6962 131.302 99.211 131.147C96.2701 130.2 93.3419 129.218 90.4193 128.217C88.32 127.5 86.2144 126.803 84.1084 126.106C83.9145 126.658 83.7206 127.21 83.5208 127.779C79.1446 139.983 72.5123 150.727 60.4536 156.537C57.0571 158.091 53.5737 159.278 49.9467 160.182C49.3256 160.339 49.3256 160.339 48.6919 160.499C39.2558 161.958 30.2641 160.183 21.846 155.785C21.3893 155.549 20.9326 155.313 20.4621 155.07C10.9701 149.793 4.71389 141.088 1.58917 130.832C-1.63146 119.27 0.1594 105.862 5.9078 95.3458C7.25295 93.0637 8.71288 90.8747 10.2751 88.7337C10.6402 88.1216 11.0053 87.5095 11.3814 86.8788C13.9573 84.6248 16.5136 85.0799 19.8142 85.23C20.7417 85.2523 20.7417 85.2523 21.6878 85.2751C23.211 85.3139 24.7319 85.3681 26.254 85.4361C25.8477 85.8407 25.4414 86.2452 25.0228 86.662C24.52 87.1643 24.0171 87.6666 23.499 88.1841C22.9152 88.759 22.9152 88.759 22.3195 89.3456C13.5113 98.5057 9.95629 109.962 10.1223 122.437C10.4255 131.48 14.1961 139.15 20.744 145.342C27.8665 151.327 36.3501 153.673 45.5388 153.037C54.2554 152.029 61.0978 148.519 67.0276 142.045C68.5049 140.116 69.7288 138.133 70.8845 135.999C71.1445 135.538 71.4044 135.077 71.6723 134.602C75.5549 127.028 75.592 118.209 75.5335 109.893C75.5326 109.416 75.5317 108.938 75.5307 108.446C75.5051 100.875 74.883 93.677 73.357 86.2452C72.9592 84.2323 72.6785 82.2133 72.3998 80.1806C72.2762 79.2954 72.2762 79.2954 72.1501 78.3922C72.0961 77.9962 72.0421 77.6002 71.9865 77.1921C71.6229 77.1921 71.2592 77.1921 70.8845 77.1921C70.1939 77.9516 70.1939 77.9516 69.5243 78.9655C69.2579 79.3473 68.9916 79.7292 68.7171 80.1226C68.4323 80.5385 68.1475 80.9544 67.8541 81.3828C67.2516 82.2489 66.649 83.1148 66.0461 83.9806C65.7457 84.4143 65.4452 84.8481 65.1357 85.295C63.9469 87.0033 62.7342 88.6938 61.5176 90.3825C58.6205 94.4182 55.7511 98.4732 52.8863 102.532C52.2361 103.452 51.5844 104.371 50.9325 105.29C50.5958 105.766 50.2592 106.243 49.9123 106.733C49.6332 107.127 49.354 107.521 49.0664 107.927C48.2078 109.196 47.4199 110.498 46.6408 111.817C47.0336 111.639 47.4265 111.462 47.8313 111.279C50.477 110.33 53.1523 110.508 55.9388 110.512C56.5521 110.511 57.1653 110.51 57.7972 110.509C62.7352 110.572 66.7679 111.348 71.4355 112.916C71.2537 115.455 71.0719 117.994 70.8845 120.61C67.0276 120.061 67.0276 120.061 65.3122 119.777C58.2445 118.899 51.052 118.863 44.4368 121.71C43.8856 121.943 43.3345 122.176 42.7666 122.416C38.4785 124.395 34.8887 127.028 31.2129 129.954C28.8471 128.897 27.4818 127.412 25.703 125.557C26.5041 123.837 27.4674 122.375 28.5957 120.851C28.9863 120.322 29.377 119.792 29.7795 119.247C30.1148 118.795 30.1148 118.795 30.4569 118.334C31.3161 117.174 32.1707 116.01 33.0252 114.846C36.2972 110.395 39.5995 105.976 42.9904 101.615C45.14 98.8276 47.2089 95.98 49.2938 93.1445C51.2038 90.5514 53.1352 87.9787 55.1123 85.4361C57.0585 82.9325 58.9472 80.4024 60.7643 77.804C61.8258 76.4115 62.9084 75.1643 64.0961 73.8838C64.4535 73.4783 64.811 73.0729 65.1793 72.6551C65.8834 71.8586 66.6096 71.0809 67.3606 70.3282C69.1208 68.2861 69.9074 66.644 69.7625 63.9488C69.5859 62.1617 69.3282 60.3897 69.0664 58.6134C68.3728 53.8771 68.4373 49.0968 68.4395 44.3192C68.4393 43.8153 68.439 43.3115 68.4388 42.7923C68.4715 29.8702 70.3443 17.582 79.0806 7.45529C85.3823 1.20418 94.446 -2.63302 102.756 2.14393Z" fill="#C9886B"/>
<path d="M188.188 114.312C188.188 116.938 187.25 119.188 185.375 121.062C182.667 123.688 178.812 125 173.812 125C169.521 125 165.792 123.938 162.625 121.812C162.625 122.604 162.583 123.188 162.5 123.562C162.292 124.188 161.667 124.5 160.625 124.5V111.438H162.75C162.833 112.771 163.042 114.021 163.375 115.188C164.75 120.562 168.083 123.25 173.375 123.25C174.833 123.25 176.188 122.979 177.438 122.438C180.104 121.271 181.438 119.229 181.438 116.312C181.438 115.271 181.208 114.312 180.75 113.438C179.792 111.688 177.479 109.938 173.812 108.188C169.771 106.312 167.438 105.188 166.812 104.812C162.896 102.562 160.938 99.6875 160.938 96.1875C160.938 93.8125 161.792 91.7708 163.5 90.0625C166 87.5208 169.583 86.25 174.25 86.25C178 86.25 181.458 87.0625 184.625 88.6875C184.625 88.3125 184.646 87.9792 184.688 87.6875C184.854 86.9375 185.5 86.5625 186.625 86.5625V97.625H184.5C184.5 95.3333 183.938 93.375 182.812 91.75C181.021 89.2917 178.396 88.0625 174.938 88.0625C173.729 88.0625 172.604 88.25 171.562 88.625C169.021 89.625 167.75 91.4375 167.75 94.0625C167.75 95.1042 167.979 96.0417 168.438 96.875C169.354 98.625 171.625 100.333 175.25 102C179.292 103.875 181.646 105.021 182.312 105.438C186.229 107.729 188.188 110.688 188.188 114.312Z" fill="#0D2B35"/>
<path d="M218 124.375H199.375V122.75H205.312V88.5H202.875C199.5 88.5417 197.188 90.6667 195.938 94.875L194.562 99.625H192.75L193 86.875H224.5L224.812 99.625H223L221.625 94.875C220.417 90.6667 218.083 88.5417 214.625 88.5H212V122.75H216.312C217.104 122.833 217.667 123.375 218 124.375Z" fill="#0D2B35"/>
<path d="M227.125 88.5V86.875H243.812V88.5H238.875V110C238.875 112.5 239.104 114.646 239.562 116.438C240.771 120.938 243.75 123.188 248.5 123.188C255.333 123.146 258.771 118.792 258.812 110.125V88.5H253.812V86.875H266.062V88.5H261.062V109.75C261.062 112.375 260.792 114.646 260.25 116.562C258.583 122.188 254.229 125 247.188 125C237.229 124.958 232.208 120.104 232.125 110.438V88.5H227.125Z" fill="#0D2B35"/>
<path d="M268.375 86.875H286.188C290.604 86.875 294.479 87.9375 297.812 90.0625C303.062 93.3958 305.688 98.6042 305.688 105.688C305.688 111.188 303.875 115.667 300.25 119.125C296.542 122.625 291.854 124.375 286.188 124.375H268.375V122.75H273.375V88.5H268.375V86.875ZM286.188 88.5H280.062V122.75H286.25C293.875 122.542 297.833 116.75 298.125 105.375C298.125 102.083 297.812 99.2917 297.188 97C295.646 91.3333 291.979 88.5 286.188 88.5Z" fill="#0D2B35"/>
<path d="M327.25 124.375H310.562V122.75H315.562V88.5H310.562V86.875H327.25V88.5H322.25V122.75H325.625C325.833 122.75 326.042 122.771 326.25 122.812C326.917 122.938 327.25 123.458 327.25 124.375Z" fill="#0D2B35"/>
<path d="M351.438 86.25C355.854 86.25 359.75 87.5 363.125 90C367.958 93.5833 370.375 98.8125 370.375 105.688C370.375 111.479 368.438 116.208 364.562 119.875C360.896 123.292 356.458 125 351.25 125C346.708 125 342.708 123.667 339.25 121C334.542 117.292 332.188 112.104 332.188 105.438C332.188 99.6875 334.146 95 338.062 91.375C341.729 87.9583 346.188 86.25 351.438 86.25ZM351.438 123.25C358.854 123.208 362.583 117.25 362.625 105.375C362.583 93.875 358.792 88.0833 351.25 88C343.708 88.0417 339.917 93.9375 339.875 105.688C339.917 117.312 343.771 123.167 351.438 123.25Z" fill="#0D2B35"/>
<path d="M404.5 114.312C404.5 116.938 403.562 119.188 401.688 121.062C398.979 123.688 395.125 125 390.125 125C385.833 125 382.104 123.938 378.938 121.812C378.938 122.604 378.896 123.188 378.812 123.562C378.604 124.188 377.979 124.5 376.938 124.5V111.438H379.062C379.146 112.771 379.354 114.021 379.688 115.188C381.062 120.562 384.396 123.25 389.688 123.25C391.146 123.25 392.5 122.979 393.75 122.438C396.417 121.271 397.75 119.229 397.75 116.312C397.75 115.271 397.521 114.312 397.062 113.438C396.104 111.688 393.792 109.938 390.125 108.188C386.083 106.312 383.75 105.188 383.125 104.812C379.208 102.562 377.25 99.6875 377.25 96.1875C377.25 93.8125 378.104 91.7708 379.812 90.0625C382.312 87.5208 385.896 86.25 390.562 86.25C394.312 86.25 397.771 87.0625 400.938 88.6875C400.938 88.3125 400.958 87.9792 401 87.6875C401.167 86.9375 401.812 86.5625 402.938 86.5625V97.625H400.812C400.812 95.3333 400.25 93.375 399.125 91.75C397.333 89.2917 394.708 88.0625 391.25 88.0625C390.042 88.0625 388.917 88.25 387.875 88.625C385.333 89.625 384.062 91.4375 384.062 94.0625C384.062 95.1042 384.292 96.0417 384.75 96.875C385.667 98.625 387.938 100.333 391.562 102C395.604 103.875 397.958 105.021 398.625 105.438C402.542 107.729 404.5 110.688 404.5 114.312Z" fill="#0D2B35"/>
<path d="M187.688 74.375H159V72.75H164V38.5H159V36.875H176V38.5H170.688V72.75H178.438C179.396 72.75 180.271 72.5833 181.062 72.25C182.896 71.4583 184.25 69.4792 185.125 66.3125L186.5 61.4375H188L187.688 74.375Z" fill="#0D2B35"/>
<path d="M189 38.5V36.875H205.688V38.5H200.75V60C200.75 62.5 200.979 64.6458 201.438 66.4375C202.646 70.9375 205.625 73.1875 210.375 73.1875C217.208 73.1458 220.646 68.7917 220.688 60.125V38.5H215.688V36.875H227.938V38.5H222.938V59.75C222.938 62.375 222.667 64.6458 222.125 66.5625C220.458 72.1875 216.104 75 209.062 75C199.104 74.9583 194.083 70.1042 194 60.4375V38.5H189Z" fill="#0D2B35"/>
<path d="M240.375 74.375H228.75C228.75 74.1667 228.771 73.9583 228.812 73.75C228.938 73.0833 229.458 72.75 230.375 72.75C232.083 72.75 233.375 72.1667 234.25 71L244.75 56.5L232.812 38.5H229.062V36.875H244.75V38.5H240.188L249.188 51.875L258.75 38.5H253.75V36.875H264.688C264.688 37.0833 264.667 37.2917 264.625 37.5C264.5 38.1667 263.979 38.5 263.062 38.5C262.812 38.5 262.583 38.5 262.375 38.5C261.375 38.5833 260.479 39.1667 259.688 40.25L250.25 53.4375L263.25 72.75H265.125C265.917 72.8333 266.479 73.375 266.812 74.375H251V72.75H255.562L245.875 58.125L235.375 72.75H240.375V74.375Z" fill="#0D2B35"/>
<path d="M298.875 48.4375H297.438L296.312 44.9375C296.271 44.8125 296.229 44.6667 296.188 44.5C294.938 40.5 292.667 38.5 289.375 38.5H280.5V54.125H293.062V55.9375H280.5V72.75H289.375C289.875 72.75 290.354 72.7083 290.812 72.625C293.354 72.125 295.188 70.0208 296.312 66.3125L297.438 62.8125H298.875L298.625 74.375H268.812V72.75H273.812V38.5H268.812V36.875H298.625L298.875 48.4375Z" fill="#0D2B35"/>
<path d="M316 41H320.062V72.1875L325.938 72.6875C326.104 72.6875 326.271 72.7083 326.438 72.75C327.271 72.9167 327.688 73.4583 327.688 74.375H305.375V72.75L313.688 72.1875V45.25L304.25 51.125L303.125 49.375L316 41Z" fill="#0D2B35"/>
<path d="M358.875 62.75C358.875 65.5417 358.042 68.0208 356.375 70.1875C353.792 73.3958 350.104 75 345.312 75C342.521 75 340.083 74.25 338 72.75C333.75 69.7083 331.625 64.1875 331.625 56.1875C331.625 51.5208 332.479 47.5208 334.188 44.1875C336.938 38.7292 341.333 36 347.375 36C349.958 36 352.229 36.4583 354.188 37.375C356.896 38.625 358.25 40.3542 358.25 42.5625C358.25 42.8958 358.208 43.2292 358.125 43.5625C357.75 45.2708 356.667 46.125 354.875 46.125C354 46.125 353.292 45.9583 352.75 45.625C352.083 45.125 351.625 43.9792 351.375 42.1875C351.292 41.3958 351.188 40.8125 351.062 40.4375C350.604 38.5625 349.167 37.625 346.75 37.625C345.208 37.625 343.896 38.0625 342.812 38.9375C340.271 40.9375 338.812 45.875 338.438 53.75C340.854 52.0417 343.583 51.1667 346.625 51.125C349.375 51.125 351.812 51.7917 353.938 53.125C357.229 55.2917 358.875 58.5 358.875 62.75ZM338.25 63.5C338.25 64.5417 338.312 65.5417 338.438 66.5C339.188 71.0833 341.5 73.375 345.375 73.375C350.042 73.3333 352.396 69.7917 352.438 62.75C352.396 56.375 350.104 53.1458 345.562 53.0625C344.854 53.0625 344.188 53.1458 343.562 53.3125C340.021 54.3542 338.25 57.75 338.25 63.5Z" fill="#0D2B35"/>
</svg>
